<svg xmlns="http://www.w3.org/2000/svg" viewBox="0 0 64 64">
  <defs>
    <linearGradient id="g" x1="0%" y1="0%" x2="100%" y2="100%">
      <stop offset="0%" stop-color="#60a5fa"/>
      <stop offset="100%" stop-color="#a78bfa"/>
    </linearGradient>
  </defs>
  <!-- 3D cube icon -->
  <polygon points="32,4 58,18 58,46 32,60 6,46 6,18" fill="none" stroke="url(#g)" stroke-width="3" stroke-linejoin="round"/>
  <line x1="32" y1="4" x2="32" y2="60" stroke="url(#g)" stroke-width="2.5" opacity="0.5"/>
  <line x1="6" y1="18" x2="58" y2="18" stroke="url(#g)" stroke-width="2.5" opacity="0.3"/>
  <polygon points="32,18 58,18 32,4 6,18" fill="url(#g)" opacity="0.25"/>
  <polygon points="6,18 32,32 32,60 6,46" fill="url(#g)" opacity="0.15"/>
  <polygon points="58,18 32,32 32,60 58,46" fill="url(#g)" opacity="0.35"/>
  <line x1="6" y1="18" x2="32" y2="32" stroke="url(#g)" stroke-width="2"/>
  <line x1="58" y1="18" x2="32" y2="32" stroke="url(#g)" stroke-width="2"/>
  <line x1="32" y1="32" x2="32" y2="60" stroke="url(#g)" stroke-width="2"/>
</svg>
